# xmcd
# Track frame offsets:
# 183
# 16300
# 30313
# 44128
# 54780
# 70340
# 80470
# 93688
# 108160
# 119635
# 135293
#
# Disc length: 2019 seconds
# Revision: 0
# Processed by: cddbd v1.5.1PL0 Copyright (c) Steve Scherf et al.
# Submitted via: VisiTrax 2.9.10.228 - For more info visit www.synapsa.com
#
DISCID=8b07e10b
DTITLE=Chris Farlowe - Mr Soulful
DYEAR=1987
DGENRE=Rock
TTITLE0=Think
TTITLE1=It Was Easier To Hurt Her
TTITLE2=The Fool
TTITLE3=I'm Free
TTITLE4=Handbags And Gladrags
TTITLE5=In The Midnight Hour
TTITLE6=I've Been Loving To Long
TTITLE7=Reach Out I'll Be There
TTITLE8=Mr Pitiful
TTITLE9=Paint It Black
TTITLE10=Out Of Time
EXTD=
EXTT0=
EXTT1=
EXTT2=
EXTT3=
EXTT4=
EXTT5=
EXTT6=
EXTT7=
EXTT8=
EXTT9=
EXTT10=
PLAYORDER=
